<svg xmlns="http://www.w3.org/2000/svg" viewBox="0 0 512 512" role="img" aria-labelledby="title description">
  <title id="title">Meeting Room</title>
  <desc id="description">A meeting note with a live audio waveform and sparkle.</desc>
  <defs>
    <linearGradient id="tile" x1="88" y1="58" x2="424" y2="460" gradientUnits="userSpaceOnUse">
      <stop stop-color="#111820"/>
      <stop offset="1" stop-color="#080d12"/>
    </linearGradient>
    <linearGradient id="mint" x1="142" y1="118" x2="358" y2="393" gradientUnits="userSpaceOnUse">
      <stop stop-color="#62f4bd"/>
      <stop offset="1" stop-color="#43eaa5"/>
    </linearGradient>
  </defs>
  <rect x="12" y="12" width="488" height="488" rx="112" fill="url(#tile)"/>
  <path
    d="M177 94h135l97 97v158c0 42-34 76-76 76h-88l-50 47v-47h-18c-42 0-76-34-76-76V170c0-42 34-76 76-76Z"
    fill="none"
    stroke="#f8faf9"
    stroke-width="28"
    stroke-linecap="round"
    stroke-linejoin="round"
  />
  <path
    d="M312 96v58c0 29 24 53 53 53h41"
    fill="none"
    stroke="url(#mint)"
    stroke-width="28"
    stroke-linecap="round"
    stroke-linejoin="round"
  />
  <rect x="148" y="194" width="24" height="72" rx="12" fill="url(#mint)"/>
  <rect x="204" y="156" width="24" height="148" rx="12" fill="url(#mint)"/>
  <rect x="260" y="184" width="24" height="92" rx="12" fill="url(#mint)"/>
  <path d="M326 284c8 28 25 45 53 53-28 8-45 25-53 53-8-28-25-45-53-53 28-8 45-25 53-53Z" fill="url(#mint)"/>
</svg>
